<?xml version="1.0" standalone="no"?>
<!DOCTYPE svg PUBLIC "-//W3C//DTD SVG 20010904//EN"
 "http://www.w3.org/TR/2001/REC-SVG-20010904/DTD/svg10.dtd">
<svg version="1.0" xmlns="http://www.w3.org/2000/svg"
 width="700.000000pt" height="700.000000pt" viewBox="0 0 700.000000 700.000000"
 preserveAspectRatio="xMidYMid meet">
<metadata>
Created by potrace 1.11, written by Peter Selinger 2001-2013
</metadata>
<g transform="translate(0.000000,700.000000) scale(0.100000,-0.100000)"
fill="#000000" stroke="none">
<path d="M2885 6993 c-612 -52 -1151 -299 -1576 -723 -698 -697 -914 -1745
-549 -2665 244 -614 726 -1108 1334 -1365 83 -36 106 -42 148 -38 99 10 154
107 114 202 -16 39 -53 67 -127 96 -98 39 -270 129 -368 195 -134 89 -219 158
-344 283 -273 270 -476 624 -572 1001 -53 206 -60 270 -60 541 0 222 3 271 23
377 129 701 568 1283 1199 1589 830 403 1815 246 2475 -394 604 -586 820
-1457 558 -2253 -57 -172 -52 -232 23 -278 72 -44 168 -18 205 56 58 114 133
412 158 629 20 167 14 483 -11 639 -65 411 -224 791 -468 1120 -101 138 -358
396 -495 498 -432 322 -977 502 -1501 495 -69 -1 -144 -3 -166 -5z"/>
<path d="M2789 6100 c-585 -106 -1061 -517 -1248 -1075 -61 -182 -75 -279 -75
-505 0 -174 3 -220 22 -307 109 -504 407 -896 851 -1120 152 -77 181 -86 238
-71 73 18 122 100 103 169 -18 60 -39 79 -153 133 -195 92 -339 201 -466 352
-323 387 -400 906 -202 1365 167 386 490 654 915 760 116 29 367 37 498 15
389 -64 734 -303 929 -645 187 -327 224 -727 100 -1085 -12 -33 -21 -72 -21
-88 0 -129 153 -195 243 -104 54 54 118 282 138 491 46 500 -171 1030 -554
1351 -218 183 -438 292 -722 356 -135 30 -450 35 -596 8z"/>
<path d="M2985 4640 c-16 -11 -38 -34 -47 -52 -17 -31 -18 -157 -18 -2251 0
-2426 -4 -2261 59 -2306 47 -33 92 -37 144 -12 41 20 76 70 613 876 l569 854
993 1 c1086 0 1033 -3 1085 59 21 26 27 43 27 83 0 28 -7 62 -16 76 -15 27
-3240 2671 -3272 2684 -35 14 -107 8 -137 -12z"/>
</g>
</svg>
